<svg id="Layer_1" data-name="Layer 1" xmlns="http://www.w3.org/2000/svg" viewBox="0 0 120 120"><title>logo</title><path d="M59.68,31.19a11,11,0,0,1-11,11V36.67a5.52,5.52,0,0,0,5.52-5.49v-22h5.52ZM54.16,1V6.49h5.52V1Z"/><path d="M45.88,64.12a11,11,0,0,1-22.08,0v-11h5.52v11a5.52,5.52,0,0,0,11,0v-11h5.52Z"/><path d="M81.76,42.16V75.09H76.24V42.16Z"/><path d="M15.52,88.81V94.3H10V88.81Zm0,8.23v22H10V97Z"/><path d="M68,108a11,11,0,0,1-22.08,0V97H51.4v11a5.52,5.52,0,0,0,11,0V97H68Z"/><path d="M104.09,100.56A9.59,9.59,0,0,1,100.34,119a11.69,11.69,0,0,1-1.38-.11v-5.6a5.58,5.58,0,0,0,1.38.22,4.12,4.12,0,1,0,0-8.23,4.33,4.33,0,0,0-1.21.16L95,109.56l-3.92-3.84,12.42-12.35,3.92,3.84Z"/></svg>